<?xml version="1.0" encoding="UTF-8"?>
<svg width="540px" height="406px" viewBox="0 0 540 406" version="1.1" xmlns="http://www.w3.org/2000/svg" xmlns:xlink="http://www.w3.org/1999/xlink">
    <!-- Generator: Sketch 48.2 (47327) - http://www.bohemiancoding.com/sketch -->
    <title>notifications_action_items</title>
    <desc>Created with Sketch.</desc>
    <defs></defs>
    <g id="V3-(CURRENT)" stroke="none" stroke-width="1" fill="none" fill-rule="evenodd">
        <g id="notifications_action_items">
            <rect id="Rectangle-18" fill="#F5F5F5" x="0" y="0" width="540" height="405"></rect>
            <g id="Group-8" transform="translate(193.500000, 112.500000)" stroke="#979797" stroke-width="4.5">
                <g id="Group-7" transform="translate(18.000000, 58.500000)">
                    <path d="M29.25,20.25 L47.25,2.25" id="Path-12"></path>
                    <path d="M56.25,20.25 L74.25,2.25" id="Path-12"></path>
                    <path d="M83.25,20.25 L101.25,2.25" id="Path-12"></path>
                    <path d="M110.25,20.25 L128.25,2.25" id="Path-12"></path>
                    <path d="M2.25,20.25 L20.25,2.25" id="Path-12"></path>
                </g>
                <rect id="Rectangle-24" x="11.25" y="60.75" width="139.5" height="103.5" rx="4.5"></rect>
                <path d="M11.25,78.75 L150.768144,78.75" id="Path-10"></path>
                <g id="Group-6" transform="translate(76.500000, 33.750000) rotate(-15.000000) translate(-76.500000, -33.750000) translate(4.500000, 22.500000)">
                    <rect id="Rectangle-26" x="2.25" y="2.25" width="139.5" height="18" rx="4.5"></rect>
                    <g id="Group-5" transform="translate(72.000000, 11.250000) scale(-1, 1) translate(-72.000000, -11.250000) translate(9.000000, 2.250000)">
                        <path d="M27,18 L45,0" id="Path-12"></path>
                        <path d="M54,18 L72,0" id="Path-12"></path>
                        <path d="M81,18 L99,0" id="Path-12"></path>
                        <path d="M108,18 L126,0" id="Path-12"></path>
                        <path d="M0,18 L18,0" id="Path-12"></path>
                    </g>
                </g>
                <path d="M31.5,148.5 L130.5,148.5" id="Path-14" stroke-linecap="round"></path>
            </g>
        </g>
    </g>
</svg>