<?xml version="1.0" encoding="UTF-8"?>
<svg width="540px" height="406px" viewBox="0 0 540 406" version="1.1" xmlns="http://www.w3.org/2000/svg" xmlns:xlink="http://www.w3.org/1999/xlink">
    <!-- Generator: Sketch 48.2 (47327) - http://www.bohemiancoding.com/sketch -->
    <title>notifications_scoping_down</title>
    <desc>Created with Sketch.</desc>
    <defs></defs>
    <g id="V3-(CURRENT)" stroke="none" stroke-width="1" fill="none" fill-rule="evenodd">
        <g id="notifications_scoping_down">
            <rect id="Rectangle-18" fill="#F5F5F5" x="0" y="0" width="540" height="405"></rect>
            <g id="Group-17" transform="translate(121.500000, 81.000000)" stroke-width="4.5">
                <g id="Group-12" stroke="#D8D8D8">
                    <ellipse id="Oval-11" cx="45.0694444" cy="27.7714286" rx="22.5694444" ry="27.7714286"></ellipse>
                    <path d="M31.5748839,60.8071891 C20.8263792,61.6852717 13.6284158,64.6881158 9.85265574,69.6620978 C5.96344759,74.7855301 3.3986245,84.9057334 2.32763857,99.9107946 C13.0796107,107.816738 27.3285484,111.792857 45.1388889,111.792857 C62.948755,111.792857 77.1974079,107.81695 87.94928,99.9114264 C86.8520312,84.6734249 84.2886718,74.5566284 80.4512692,69.6958721 C76.6862899,64.9268529 69.4201545,61.9112871 58.5570629,60.8108706 C53.1346277,64.0170029 48.4110116,65.6508403 44.3328373,65.6508403 C40.2390093,65.6508403 35.9870493,64.0099121 31.5748839,60.8071891 Z" id="Rectangle-23"></path>
                </g>
                <g id="Group-15" transform="translate(103.500000, 0.000000)" stroke="#D8D8D8">
                    <ellipse id="Oval-11" cx="47.25" cy="27.7714286" rx="22.5694444" ry="27.7714286"></ellipse>
                    <path d="M33.685995,61.1172731 C22.9374903,61.9953557 15.7395269,64.9981998 11.9637669,69.9721818 C8.0745587,75.0956141 5.50973561,85.2158174 4.43874968,100.220879 C15.1907218,108.126822 29.4396595,112.102941 47.25,112.102941 C65.0598661,112.102941 79.308519,108.127034 90.0603911,100.22151 C88.9631423,84.9835089 86.3997829,74.8667124 82.5623803,70.0059562 C78.797401,65.2369369 71.5312656,62.2213712 60.668174,61.1209546 C55.2457388,64.327087 50.5221227,65.9609244 46.4439484,65.9609244 C42.3501204,65.9609244 38.0981604,64.3199961 33.685995,61.1172731 Z" id="Rectangle-23"></path>
                </g>
                <g id="Group-11" transform="translate(207.000000, 0.000000)" stroke="#D8D8D8">
                    <ellipse id="Oval-11" cx="49.3611111" cy="27.7714286" rx="22.5694444" ry="27.7714286"></ellipse>
                    <path d="M35.7971061,61.1172731 C25.0486014,61.9953557 17.850638,64.9981998 14.074878,69.9721818 C10.1856698,75.0956141 7.62084672,85.2158174 6.54986079,100.220879 C17.3018329,108.126822 31.5507706,112.102941 49.3611111,112.102941 C67.1709772,112.102941 81.4196301,108.127034 92.1715022,100.22151 C91.0742534,84.9835089 88.510894,74.8667124 84.6734914,70.0059562 C80.9085121,65.2369369 73.6423768,62.2213712 62.7792851,61.1209546 C57.3568499,64.327087 52.6332338,65.9609244 48.5550595,65.9609244 C44.4612315,65.9609244 40.2092715,64.3199961 35.7971061,61.1172731 Z" id="Rectangle-23"></path>
                </g>
                <g id="Group-13" transform="translate(0.000000, 130.500000)" stroke="#D8D8D8">
                    <ellipse id="Oval-11" cx="45.1388889" cy="30.4184874" rx="22.5694444" ry="27.7714286"></ellipse>
                    <path d="M31.5748839,63.7643319 C20.8263792,64.6424146 13.6284158,67.6452586 9.85265574,72.6192406 C5.96344759,77.742673 3.3986245,87.8628762 2.32763857,102.867937 C13.0796107,110.773881 27.3285484,114.75 45.1388889,114.75 C62.948755,114.75 77.1974079,110.774093 87.94928,102.868569 C86.8520312,87.6305678 84.2886718,77.5137712 80.4512692,72.653015 C76.6862899,67.8839958 69.4201545,64.86843 58.5570629,63.7680134 C53.1346277,66.9741458 48.4110116,68.6079832 44.3328373,68.6079832 C40.2390093,68.6079832 35.9870493,66.9670549 31.5748839,63.7643319 Z" id="Rectangle-23"></path>
                </g>
                <g id="Group-14" transform="translate(103.500000, 130.500000)" stroke="#979797">
                    <ellipse id="Oval-11" cx="47.25" cy="30.4184874" rx="22.5694444" ry="27.7714286"></ellipse>
                    <path d="M33.685995,63.7643319 C22.9374903,64.6424146 15.7395269,67.6452586 11.9637669,72.6192406 C8.0745587,77.742673 5.50973561,87.8628762 4.43874968,102.867937 C15.1907218,110.773881 29.4396595,114.75 47.25,114.75 C65.0598661,114.75 79.308519,110.774093 90.0603911,102.868569 C88.9631423,87.6305678 86.3997829,77.5137712 82.5623803,72.653015 C78.797401,67.8839958 71.5312656,64.86843 60.668174,63.7680134 C55.2457388,66.9741458 50.5221227,68.6079832 46.4439484,68.6079832 C42.3501204,68.6079832 38.0981604,66.9670549 33.685995,63.7643319 Z" id="Rectangle-23"></path>
                </g>
                <g id="Group-10" transform="translate(207.000000, 130.500000)" stroke="#D8D8D8">
                    <ellipse id="Oval-11" cx="49.3611111" cy="30.4184874" rx="22.5694444" ry="27.7714286"></ellipse>
                    <path d="M35.7971061,63.7643319 C25.0486014,64.6424146 17.850638,67.6452586 14.074878,72.6192406 C10.1856698,77.742673 7.62084672,87.8628762 6.54986079,102.867937 C17.3018329,110.773881 31.5507706,114.75 49.3611111,114.75 C67.1709772,114.75 81.4196301,110.774093 92.1715022,102.868569 C91.0742534,87.6305678 88.510894,77.5137712 84.6734914,72.653015 C80.9085121,67.8839958 73.6423768,64.86843 62.7792851,63.7680134 C57.3568499,66.9741458 52.6332338,68.6079832 48.5550595,68.6079832 C44.4612315,68.6079832 40.2092715,66.9670549 35.7971061,63.7643319 Z" id="Rectangle-23"></path>
                </g>
            </g>
        </g>
    </g>
</svg>