<?xml version="1.0" encoding="UTF-8"?>
<svg width="540px" height="406px" viewBox="0 0 540 406" version="1.1" xmlns="http://www.w3.org/2000/svg" xmlns:xlink="http://www.w3.org/1999/xlink">
    <!-- Generator: Sketch 48.2 (47327) - http://www.bohemiancoding.com/sketch -->
    <title>notifications_multiple_mediums</title>
    <desc>Created with Sketch.</desc>
    <defs>
        <path d="M81.305415,17.2935 C82.75122,17.2935 83.92374,18.459 83.92374,19.89675 C83.92374,21.3345 82.75158,22.5 81.305775,22.5 L3.48057,22.5 C2.034765,22.5 0.862605,21.3345 0.862605,19.89675 C0.862605,18.459 2.034765,17.2935 3.48057,17.2935 L23.576085,17.2935 L23.576085,4.53645 C23.576085,3.0987 24.748245,1.9332 26.19405,1.9332 C27.639855,1.9332 28.812015,3.0987 28.812015,4.53645 L28.812015,17.2935 L55.97361,17.2935 L55.97361,4.53645 C55.97361,3.0987 57.14577,1.9332 58.591575,1.9332 C60.03738,1.9332 61.20954,3.0987 61.20954,4.53645 L61.20954,17.2935 L81.305415,17.2935 Z" id="path-1"></path>
        <path d="M5.18022,10.32975 L5.18022,94.4136 C5.18022,97.26795 7.514325,99.5922 10.3815,99.5922 L137.255085,99.5922 C140.118705,99.5922 142.45641,97.2684 142.45641,94.4136 L142.45641,10.32975 C142.45641,7.4754 140.122305,5.15115 137.255085,5.15115 L10.3815,5.15115 C7.517925,5.15115 5.18022,7.47495 5.18022,10.32975 Z M0,10.32975 C0,4.62465 4.662315,0 10.3815,0 L137.255085,0 C142.98867,0 147.63663,4.6359 147.63663,10.32975 L147.63663,94.4136 C147.63663,100.1187 142.974315,104.74335 137.255085,104.74335 L10.3815,104.74335 C4.64796,104.74335 0,100.10745 0,94.4136 L0,10.32975 Z" id="path-3"></path>
        <path d="M0,2.24980555 C0,1.00725953 1.16437986,0 2.60058843,0 L123.399412,0 C124.83562,0 126,1.00725953 126,2.24980555 C126,3.49235157 124.83562,4.5 123.399412,4.5 L2.60058843,4.5 C1.16437986,4.5 0,3.49235157 0,2.24980555 Z" id="path-5"></path>
    </defs>
    <g id="V3-(CURRENT)" stroke="none" stroke-width="1" fill="none" fill-rule="evenodd">
        <g id="notifications_multiple_mediums">
            <rect id="Rectangle-18" fill="#F5F5F5" x="0" y="0" width="540" height="405"></rect>
            <g id="Group" transform="translate(166.500000, 157.500000)">
                <g id="Group-237" transform="translate(31.500000, 108.000000)">
                    <mask id="mask-2" fill="white">
                        <use xlink:href="#path-1"></use>
                    </mask>
                    <g id="Clip-236"></g>
                    <polygon id="Fill-235" fill="#A1A1A1" mask="url(#mask-2)" points="-21.637395 -20.5668 106.42374 -20.5668 106.42374 45 -21.637395 45"></polygon>
                </g>
                <g id="Group-240">
                    <mask id="mask-4" fill="white">
                        <use xlink:href="#path-3"></use>
                    </mask>
                    <g id="Clip-239"></g>
                    <polygon id="Fill-238" fill="#A1A1A1" mask="url(#mask-4)" points="-22.5 -22.5 170.13663 -22.5 170.13663 127.24335 -22.5 127.24335"></polygon>
                </g>
                <g id="Group-243" transform="translate(9.000000, 85.500000)">
                    <mask id="mask-6" fill="white">
                        <use xlink:href="#path-5"></use>
                    </mask>
                    <g id="Clip-242"></g>
                    <polygon id="Fill-241" fill="#A1A1A1" mask="url(#mask-6)" points="-22.5 -22.5 148.5 -22.5 148.5 27 -22.5 27"></polygon>
                </g>
            </g>
            <g id="Group-3" transform="translate(333.000000, 220.500000)" stroke="#979797" stroke-width="4.5">
                <rect id="Rectangle-16" x="2.25" y="2.25" width="31.5" height="63" rx="4.5"></rect>
                <path d="M9,58.3448276 L27,58.3448276" id="Line" stroke-linecap="round"></path>
                <path d="M15.75,9.15517241 L20.25,9.15517241" id="Line" stroke-linecap="round"></path>
            </g>
            <g id="Group-16" transform="translate(373.500000, 175.500000)">
                <path d="M10.3904558,45.5016452 C10.3901047,45.5017518 10.389754,45.5018584 10.3894037,45.5019651 C10.3898691,45.5018233 10.392008,45.5010264 10.3957143,45.4995768 Z M12.2919624,44.4238231 C12.929584,44.0204676 13.6884508,43.5180219 14.5653201,42.9180587 C17.3828561,40.9902708 21.3802308,38.0827317 26.5487964,34.2009033 L27.1491639,33.75 L27.9,33.75 L37.35,33.75 C40.0838095,33.75 42.3,31.5338095 42.3,28.8 L42.3,7.2 C42.3,4.46619049 40.0838095,2.25 37.35,2.25 L7.2,2.25 C4.46619049,2.25 2.25,4.46619049 2.25,7.2 L2.25,28.8 C2.25,31.5338095 4.46619049,33.75 7.2,33.75 L13.3615887,33.75 L13.0312076,36.2901939 C12.5660732,39.8664634 12.3205281,42.5878626 12.2919624,44.4238231 Z" id="Rectangle-19" stroke="#D8D8D8" stroke-width="4.5"></path>
                <text id="!" font-family="Avenir-Heavy, Avenir" font-size="28.8" font-weight="600" fill="#A1A1A1">
                    <tspan x="18.2376" y="31.25">!</tspan>
                </text>
            </g>
            <g id="Group-16" transform="translate(126.000000, 124.500000) scale(-1, 1) translate(-126.000000, -124.500000) translate(81.000000, 76.500000)">
                <path d="M23.236071,94.4574344 C23.2361529,94.4609848 23.2362704,94.4643075 23.2364217,94.4673997 C23.2360455,94.4597096 23.2353006,94.4509899 23.2340904,94.4412113 Z M23.8189241,92.0452358 C28.2972784,89.3407563 39.0665059,81.7537046 54.4487964,70.2009033 L55.0491639,69.75 L55.8,69.75 L74.7,69.75 C81.4102597,69.75 86.85,64.3102597 86.85,57.6 L86.85,14.4 C86.85,7.68974029 81.4102597,2.25 74.7,2.25 L14.4,2.25 C7.68974029,2.25 2.25,7.68974029 2.25,14.4 L2.25,57.6 C2.25,64.3102597 7.68974029,69.75 14.4,69.75 L34.2885397,69.75 L32.6005793,73.0296516 C28.6202552,80.7632907 25.8926542,86.5504076 24.4283098,90.3577029 C24.1893525,90.978992 23.9862386,91.5426209 23.8189241,92.0452358 Z" id="Rectangle-19" stroke="#D8D8D8" stroke-width="4.5"></path>
                <text id="!" font-family="Avenir-Medium, Avenir" font-size="57.6" font-weight="400" fill="#A1A1A1">
                    <tspan x="36.9936" y="58">!</tspan>
                </text>
            </g>
        </g>
    </g>
</svg>