<?xml version="1.0" encoding="UTF-8"?>
<svg width="540px" height="406px" viewBox="0 0 540 406" version="1.1" xmlns="http://www.w3.org/2000/svg" xmlns:xlink="http://www.w3.org/1999/xlink">
    <!-- Generator: Sketch 48.2 (47327) - http://www.bohemiancoding.com/sketch -->
    <title>notifications_be_sensitive</title>
    <desc>Created with Sketch.</desc>
    <defs></defs>
    <g id="V3-(CURRENT)" stroke="none" stroke-width="1" fill="none" fill-rule="evenodd">
        <g id="notifications_be_sensitive">
            <rect id="Rectangle-18" fill="#F5F5F5" x="0" y="0" width="540" height="405"></rect>
            <g id="Group-9" transform="translate(67.500000, 108.000000)">
                <text id="@#%!" font-family="Avenir-Medium, Avenir" font-size="27" font-weight="400" fill="#A1A1A1">
                    <tspan x="229.5" y="38.25">@#%!</tspan>
                </text>
                <ellipse id="Oval-11" stroke="#A1A1A1" stroke-width="4.5" cx="99.1388889" cy="104.271429" rx="22.5694444" ry="27.7714286"></ellipse>
                <path d="M85.5748839,137.617273 C74.8263792,138.495356 67.6284158,141.4982 63.8526557,146.472182 C59.9634476,151.595614 57.3986245,161.715817 56.3276386,176.720879 C67.0796107,184.626822 81.3285484,188.602941 99.1388889,188.602941 C116.948755,188.602941 131.197408,184.627034 141.94928,176.72151 C140.852031,161.483509 138.288672,151.366712 134.451269,146.505956 C130.68629,141.736937 123.420155,138.721371 112.557063,137.620955 C107.134628,140.827087 102.411012,142.460924 98.3328373,142.460924 C94.2390093,142.460924 89.9870493,140.819996 85.5748839,137.617273 Z" id="Rectangle-23" stroke="#A1A1A1" stroke-width="4.5"></path>
                <ellipse id="Oval-11" stroke="#A1A1A1" stroke-width="4.5" cx="207.138889" cy="104.271429" rx="22.5694444" ry="27.7714286"></ellipse>
                <path d="M193.574884,137.617273 C182.826379,138.495356 175.628416,141.4982 171.852656,146.472182 C167.963448,151.595614 165.398624,161.715817 164.327639,176.720879 C175.079611,184.626822 189.328548,188.602941 207.138889,188.602941 C224.948755,188.602941 239.197408,184.627034 249.94928,176.72151 C248.852031,161.483509 246.288672,151.366712 242.451269,146.505956 C238.68629,141.736937 231.420155,138.721371 220.557063,137.620955 C215.134628,140.827087 210.411012,142.460924 206.332837,142.460924 C202.239009,142.460924 197.987049,140.819996 193.574884,137.617273 Z" id="Rectangle-23" stroke="#A1A1A1" stroke-width="4.5"></path>
                <ellipse id="Oval-11" stroke="#A1A1A1" stroke-width="4.5" cx="315.138889" cy="104.271429" rx="22.5694444" ry="27.7714286"></ellipse>
                <path d="M301.574884,137.617273 C290.826379,138.495356 283.628416,141.4982 279.852656,146.472182 C275.963448,151.595614 273.398624,161.715817 272.327639,176.720879 C283.079611,184.626822 297.328548,188.602941 315.138889,188.602941 C332.948755,188.602941 347.197408,184.627034 357.94928,176.72151 C356.852031,161.483509 354.288672,151.366712 350.451269,146.505956 C346.68629,141.736937 339.420155,138.721371 328.557063,137.620955 C323.134628,140.827087 318.411012,142.460924 314.332837,142.460924 C310.239009,142.460924 305.987049,140.819996 301.574884,137.617273 Z" id="Rectangle-23" stroke="#A1A1A1" stroke-width="4.5"></path>
                <path d="M16.868603,77.9695738 C16.8686542,77.9726517 16.8687346,77.9754984 16.8688424,77.9781106 C16.8685687,77.9714792 16.8680728,77.9641628 16.8672998,77.9561272 Z M14.6314663,76.5555071 C14.6288607,76.5564154 14.6262925,76.5573269 14.6237604,76.5582411 C14.630471,76.5558184 14.6392982,76.5522821 14.6501195,76.5476388 Z M17.7449686,74.4585421 C18.5795644,73.825774 19.5470846,73.0635476 20.6450843,72.1732846 C24.5837342,68.9798101 30.1628604,64.170938 37.3737322,57.7532234 L38.0133476,57.1839623 L72.2777778,57.1839623 C80.9762626,57.1839623 88.0277778,50.1324471 88.0277778,41.4339623 L88.0277778,18 C88.0277778,9.30151519 80.9762626,2.25 72.2777778,2.25 L18,2.25 C9.30151519,2.25 2.25,9.30151519 2.25,18 L2.25,41.4339623 C2.25,50.1324471 9.30151519,57.1839623 18,57.1839623 L24.7458523,57.1839623 L23.3793442,60.3302902 C20.6550911,66.6027697 18.7745492,71.3213649 17.7449686,74.4585421 Z" id="Rectangle-19" stroke="#D8D8D8" stroke-width="4.5" transform="translate(45.138889, 39.375000) scale(-1, 1) translate(-45.138889, -39.375000) "></path>
                <path d="M124.868603,77.9695738 C124.868654,77.9726517 124.868735,77.9754984 124.868842,77.9781106 C124.868569,77.9714792 124.868073,77.9641628 124.8673,77.9561272 Z M122.631466,76.5555071 C122.628861,76.5564154 122.626292,76.5573269 122.62376,76.5582411 C122.630471,76.5558184 122.639298,76.5522821 122.65012,76.5476388 Z M125.744969,74.4585421 C126.579564,73.825774 127.547085,73.0635476 128.645084,72.1732846 C132.583734,68.9798101 138.16286,64.170938 145.373732,57.7532234 L146.013348,57.1839623 L180.277778,57.1839623 C188.976263,57.1839623 196.027778,50.1324471 196.027778,41.4339623 L196.027778,18 C196.027778,9.30151519 188.976263,2.25 180.277778,2.25 L126,2.25 C117.301515,2.25 110.25,9.30151519 110.25,18 L110.25,41.4339623 C110.25,50.1324471 117.301515,57.1839623 126,57.1839623 L132.745852,57.1839623 L131.379344,60.3302902 C128.655091,66.6027697 126.774549,71.3213649 125.744969,74.4585421 Z" id="Rectangle-19" stroke="#D8D8D8" stroke-width="4.5" transform="translate(153.138889, 39.375000) scale(-1, 1) translate(-153.138889, -39.375000) "></path>
                <path d="M232.868603,77.9695738 C232.868654,77.9726517 232.868735,77.9754984 232.868842,77.9781106 C232.868569,77.9714792 232.868073,77.9641628 232.8673,77.9561272 Z M230.631466,76.5555071 C230.628861,76.5564154 230.626292,76.5573269 230.62376,76.5582411 C230.630471,76.5558184 230.639298,76.5522821 230.65012,76.5476388 Z M233.744969,74.4585421 C234.579564,73.825774 235.547085,73.0635476 236.645084,72.1732846 C240.583734,68.9798101 246.16286,64.170938 253.373732,57.7532234 L254.013348,57.1839623 L288.277778,57.1839623 C296.976263,57.1839623 304.027778,50.1324471 304.027778,41.4339623 L304.027778,18 C304.027778,9.30151519 296.976263,2.25 288.277778,2.25 L234,2.25 C225.301515,2.25 218.25,9.30151519 218.25,18 L218.25,41.4339623 C218.25,50.1324471 225.301515,57.1839623 234,57.1839623 L240.745852,57.1839623 L239.379344,60.3302902 C236.655091,66.6027697 234.774549,71.3213649 233.744969,74.4585421 Z" id="Rectangle-19" stroke="#D8D8D8" stroke-width="4.5" transform="translate(261.138889, 39.375000) scale(-1, 1) translate(-261.138889, -39.375000) "></path>
                <text id="…" font-family="Avenir-Heavy, Avenir" font-size="27" font-weight="600" fill="#A1A1A1">
                    <tspan x="139.5" y="38.25">…</tspan>
                </text>
                <text id="…" font-family="Avenir-Heavy, Avenir" font-size="27" font-weight="600" fill="#A1A1A1">
                    <tspan x="31.5" y="38.25">…</tspan>
                </text>
            </g>
        </g>
    </g>
</svg>